<?xml version="1.0" standalone="no"?>
<!DOCTYPE svg PUBLIC "-//W3C//DTD SVG 20010904//EN"
 "http://www.w3.org/TR/2001/REC-SVG-20010904/DTD/svg10.dtd">
<svg version="1.0" xmlns="http://www.w3.org/2000/svg"
 width="250.000000pt" height="250.000000pt" viewBox="0 0 250.000000 250.000000"
 preserveAspectRatio="xMidYMid meet">

<g transform="translate(0.000000,250.000000) scale(0.100000,-0.100000)"
fill="#000000" stroke="none">
<path d="M1015 1890 c-33 -4 -136 -8 -230 -9 -114 -1 -178 -5 -195 -14 -31
-15 -37 -54 -15 -96 8 -17 11 -31 6 -31 -4 0 -40 -29 -79 -65 -140 -130 -222
-305 -331 -710 -32 -119 -51 -260 -51 -378 0 -88 14 -107 78 -107 33 0 45 -5
58 -25 25 -38 52 -39 138 -6 84 32 126 63 126 92 0 10 -41 100 -90 201 -84
170 -90 186 -81 218 5 19 15 54 21 77 9 34 19 47 54 68 23 14 47 25 52 25 6 0
20 -20 32 -45 12 -24 33 -52 47 -61 25 -16 29 -15 110 11 47 16 95 37 106 48
37 34 20 99 -69 279 l-78 157 80 86 c45 47 84 85 88 85 9 0 58 -91 198 -369
68 -134 134 -257 148 -272 38 -46 73 -40 228 42 73 40 140 82 149 95 10 16 16
55 18 121 6 163 38 200 189 209 130 8 182 25 346 111 l144 75 -6 32 -6 31 80
0 c86 0 103 9 115 56 4 17 0 33 -14 50 l-19 24 -644 2 c-353 0 -670 -2 -703
-7z m698 -60 c349 0 447 -3 441 -12 -4 -7 -10 -28 -14 -48 -5 -33 -12 -39
-120 -97 -126 -67 -208 -93 -298 -93 -90 0 -155 -23 -195 -71 -42 -48 -57
-103 -57 -203 0 -92 2 -90 -155 -170 -99 -51 -118 -57 -129 -45 -8 8 -87 157
-176 332 -92 180 -171 322 -182 328 -37 20 -83 -8 -173 -104 -47 -51 -88 -103
-92 -117 -5 -19 11 -57 67 -163 58 -112 108 -236 97 -242 -16 -9 -122 -45
-133 -45 -7 0 -23 19 -35 43 -28 55 -48 77 -71 77 -25 0 -129 -53 -150 -76
-16 -19 -58 -164 -58 -203 0 -12 40 -100 88 -196 66 -131 86 -178 77 -185 -7
-6 -38 -19 -70 -30 l-59 -20 -28 27 c-22 21 -36 26 -69 25 l-40 -3 6 98 c9
143 23 221 66 378 103 368 204 560 349 660 51 35 61 59 44 101 l-13 32 127 6
c70 3 183 10 252 15 69 5 154 7 190 5 36 -2 267 -4 513 -4z"/>
</g>
</svg>
